<svg width="172" height="70" viewBox="0 0 172 70" fill="none" xmlns="http://www.w3.org/2000/svg">
<path d="M21.2133 21.9013L20.3533 26.488H20.468C20.812 25.8573 21.328 25.2266 22.0733 24.596C22.8187 23.9653 23.736 23.3346 24.768 22.8186C25.8 22.3026 26.8893 21.844 28.0933 21.5C29.2973 21.156 30.5013 20.984 31.7627 20.984C33.5973 20.984 35.1453 21.328 36.5213 22.016C37.84 22.704 38.9293 23.6213 39.7893 24.8253C40.6493 26.0293 41.28 27.4053 41.624 29.0106C42.0253 30.616 42.1973 32.336 42.1973 34.1706C42.1973 37.668 41.6813 40.8213 40.592 43.7453C39.56 46.6693 38.1267 49.1346 36.4067 51.256C34.6867 53.3773 32.7373 54.9826 30.5587 56.1866C28.38 57.3333 26.2587 57.964 24.08 57.964C22.0733 57.964 20.4107 57.6773 19.2067 57.104C17.9453 56.5306 17.028 55.9573 16.4547 55.2693H16.34L13.8747 69.4306H0L8.37067 21.9586L21.2133 21.9013ZM23.7933 48.16C24.5387 47.4146 25.2267 46.44 25.8 45.1786C26.3733 43.9173 26.832 42.484 27.176 40.8213C27.52 39.1586 27.692 37.3813 27.692 35.4893C27.692 33.712 27.4627 32.336 26.9467 31.3613C26.4307 30.3866 25.7427 29.928 24.8253 29.928C23.6787 29.928 22.704 30.3866 21.7867 31.304C20.8693 32.2213 20.1813 34.056 19.7227 36.7506L18.5187 43.516C18.1173 45.6373 18.232 47.128 18.748 47.9306C19.264 48.7906 20.1813 49.192 21.3853 49.192C22.2453 49.2493 23.048 48.9053 23.7933 48.16ZM45.8667 55.4413C44.0893 53.7786 43.172 51.6573 43.172 49.02C43.172 46.956 43.688 45.064 44.7773 43.2866C45.8667 41.5093 47.3573 40.0186 49.3067 38.7C51.256 37.4386 53.5493 36.4066 56.244 35.6613C58.9387 34.916 61.8627 34.572 65.0733 34.572H68.456L68.6853 33.4253C68.7427 33.3106 68.7427 33.196 68.7427 33.024V32.6226C68.7427 31.82 68.5133 31.0746 67.9973 30.3866C67.4813 29.6986 66.6787 29.3546 65.4173 29.3546C64.328 29.3546 63.468 29.4693 62.78 29.6986C62.092 29.928 61.5187 30.272 61.1173 30.6733C60.6587 31.0746 60.3147 31.5333 60.0853 31.992C59.856 32.4506 59.5693 32.9666 59.34 33.4253L47.3 31.7626C47.7587 30.3293 48.504 28.9533 49.536 27.6346C50.568 26.316 51.944 25.1693 53.6067 24.1946C55.2693 23.22 57.3333 22.4173 59.7413 21.844C62.1493 21.2706 65.016 20.984 68.3413 20.984C70.2907 20.984 72.1253 21.156 73.8453 21.4426C75.6227 21.7293 77.1707 22.3026 78.4893 23.048C79.808 23.7933 80.8973 24.8253 81.6427 26.144C82.388 27.4053 82.7893 29.068 82.7893 31.0173C82.7893 31.476 82.7893 31.992 82.732 32.508C82.6747 33.024 82.6173 33.5973 82.5027 34.1133L79.5213 50.8546C79.3493 51.772 79.2347 52.5746 79.1773 53.32C79.12 54.0653 79.12 54.7533 79.12 55.384C79.12 56.072 79.12 56.7026 79.1773 57.276H65.7613L65.876 52.4026H65.7613C64.844 53.8933 63.3533 55.212 61.404 56.244C59.4547 57.3333 56.8747 57.8493 53.664 57.8493C50.3387 57.9066 47.7013 57.0466 45.8667 55.4413ZM62.8947 49.192C63.468 48.9626 63.984 48.5613 64.5 47.988C65.016 47.4146 65.4747 46.5546 65.9333 45.5226C66.392 44.4906 66.8507 43.1146 67.3093 41.452L67.424 40.936H66.1053C64.7293 40.936 63.5827 41.108 62.608 41.5093C61.6333 41.9106 60.8307 42.3693 60.1427 42.9426C59.512 43.516 58.996 44.1466 58.652 44.8346C58.308 45.5226 58.136 46.268 58.136 46.956C58.136 47.5293 58.2507 47.988 58.48 48.2746C58.7093 48.6186 58.9387 48.848 59.2253 49.02C59.512 49.192 59.856 49.3066 60.2 49.364C60.544 49.4213 60.8307 49.4786 61.06 49.4786C61.6907 49.536 62.3213 49.4213 62.8947 49.192ZM82.8467 69.66C82.1587 69.5453 81.528 69.488 80.9547 69.3733L82.732 59.34C83.3627 59.4546 83.9933 59.512 84.6813 59.6266C85.312 59.7413 85.9427 59.7986 86.7453 59.7986C87.548 59.7986 88.2933 59.856 89.0387 59.856C90.2427 59.856 91.3893 59.6266 92.4213 59.2253C93.4533 58.824 94.084 58.0786 94.3707 57.0466L94.6 56.416L87.204 21.9586H102.225L104.633 41.1653H104.748L114.151 21.9586H124.413L105.493 57.0466C104.175 59.4546 102.913 61.4613 101.652 63.0666C100.391 64.7293 99.072 66.048 97.696 67.0226C96.2627 68.0546 94.772 68.7426 93.1093 69.2013C91.4467 69.66 89.5547 69.8893 87.376 69.8893C85.484 69.832 83.936 69.7746 82.8467 69.66ZM142.244 21.9013L135.995 57.276H122.005L128.255 21.9013H142.244ZM152.449 57.448C151.303 57.1613 150.328 56.6453 149.411 55.9573C148.493 55.2693 147.805 54.352 147.232 53.2626C146.659 52.1733 146.372 50.8546 146.372 49.3066C146.372 48.7906 146.372 48.2746 146.429 47.7013C146.487 47.128 146.544 46.612 146.659 46.096L149.411 30.5013H144.423L145.971 21.9013H150.959L154.456 10.664L167.127 9.45996L164.948 21.9013H172L170.452 30.5013H163.4L160.877 44.7773C160.877 44.8346 160.877 44.9493 160.82 45.1213C160.82 45.2933 160.763 45.4653 160.763 45.6373C160.763 46.44 160.992 46.956 161.508 47.2426C162.024 47.5293 162.712 47.644 163.629 47.644C164.547 47.644 165.407 47.5866 166.209 47.4146C166.668 47.3 167.127 47.2426 167.471 47.128L165.808 57.104L162.139 57.5053C161.107 57.62 160.017 57.6773 158.871 57.792C157.724 57.9066 156.692 57.9066 155.717 57.9066C154.685 57.9066 153.596 57.7346 152.449 57.448Z" fill="white"/>
<path d="M140.409 17.9453C141.613 17.4867 142.817 16.6267 143.849 15.308C144.939 14.0467 145.971 12.212 146.945 9.91866C147.92 7.62533 148.895 4.644 149.927 1.08933L150.213 0H147.347C144.365 0 141.785 0.401332 139.664 1.204C137.485 2.00667 135.708 3.03867 134.275 4.3C132.841 5.504 131.752 6.93733 131.064 8.428C130.376 9.91867 129.975 11.524 129.975 13.072C129.975 14.276 130.204 15.2507 130.663 15.996C131.121 16.7413 131.695 17.2573 132.383 17.6013C133.071 17.9453 133.759 18.232 134.447 18.3467C135.135 18.5187 135.765 18.576 136.281 18.576C137.829 18.6333 139.205 18.404 140.409 17.9453Z" fill="#F8A51B"/>
</svg>
